<svg xmlns="http://www.w3.org/2000/svg" version="1.1" xmlns:xlink="http://www.w3.org/1999/xlink" width="1000" height="1000"><g clip-path="url(#SvgjsClipPath1070)"><rect width="1000" height="1000" fill="#d57c3f"></rect><g transform="matrix(0.35294117647058826,0,0,0.35294117647058826,50,50)"><svg xmlns="http://www.w3.org/2000/svg" version="1.1" xmlns:xlink="http://www.w3.org/1999/xlink" width="2550" height="2550"><svg xmlns="http://www.w3.org/2000/svg" width="2550" height="2550" viewBox="0 0 2550 2550" version="1.1">
<path d="M739.421 758.586C712.362 760.753 686.062 769.834 661.421 785.519C656.471 788.67 648.822 793.181 644.421 795.543C522.497 861.003 501.065 1034.51 603.344 1128.12C726.5 1240.83 914.669 1156.27 923.943 984.042C924.417 975.242 925.338 962.192 925.99 955.042C935.937 846.03 844.877 750.143 739.421 758.586M1631.54 761.688C1602.48 764.249 1570.9 775.298 1542.9 792.696C1537.14 796.279 1528.82 801.147 1524.42 803.515C1396.81 872.173 1372.67 1015.25 1471.95 1114.52C1614.39 1256.95 1821.91 1183.18 1831.95 986.542C1832.42 977.467 1833.33 964.207 1833.98 957.075C1842.65 861.655 1761.62 770.385 1660.42 761.604C1647.06 760.445 1645.6 760.449 1631.54 761.688M716.421 864.642C665.77 871.872 621.851 926.43 630.817 970.982C645.695 1044.91 719.653 1093.4 784.924 1072.02C797.728 1067.83 816.429 1045.41 825.02 1023.95C858.187 941.123 798.104 852.983 716.421 864.642M1602.7 868.465C1554 879.05 1511.76 917.061 1501.99 959.083C1494.37 991.896 1558.92 1059.33 1617.19 1079.42C1665.87 1096.21 1695.25 1089.74 1717.67 1057.31C1780.45 966.496 1706.97 845.8 1602.7 868.465M733.231 926.978C727.664 929.57 722.539 935.453 721.424 940.531C720.875 943.03 720.13 943.546 715.706 944.495C676.039 953.002 673.343 1008.49 711.961 1021.57C743.796 1032.35 774.846 1006.4 768.044 974.682C766.93 969.485 766.961 969.348 769.945 966.364C782.247 954.062 777.232 930.494 761.305 925.764C753.888 923.561 739.206 924.196 733.231 926.978M2276.42 950.472C2267.56 952.617 2261.21 958.237 2258.22 966.594C2256.62 971.056 2256.48 971.169 2250.75 972.256C2226.23 976.917 2219.56 988.005 2193.11 1068.04C2169.1 1140.71 2172.78 1133.81 2121.75 1201.75C2084.43 1251.44 2078.45 1258.77 2026.52 1318.34C1973.07 1379.66 1978.58 1374.63 1906.92 1427.53C1846.16 1472.38 1833.22 1482.21 1778.42 1525.19C1728.32 1564.48 1713.47 1575.61 1700.15 1583.85C1252.69 1860.63 540.356 1777.29 385.498 1430.04C342.209 1332.97 343.661 1335.96 337.941 1332.17C323.756 1322.79 304.326 1330.32 300.553 1346.66C300.04 1348.89 299.293 1349.35 295.579 1349.77C269.194 1352.75 256.333 1382.23 267.257 1414.7C275.087 1437.98 336.958 1574.11 346.037 1588.04C356.238 1603.69 421.497 1659.54 515.997 1733.49C543.476 1755 544.362 1755.34 657.921 1789.18C781.203 1825.92 760.827 1821.51 887.921 1838.98C1012.82 1856.16 992.202 1855.27 1110.06 1848.55C1207.88 1842.97 1195.6 1844.45 1310.42 1824.46C1410.19 1807.08 1396.14 1810.7 1503.92 1774.67C1604.07 1741.2 1591.73 1746.61 1674.92 1699.77C1764.02 1649.61 1753.94 1656.32 1831.17 1595.82C1885.13 1553.56 1898.88 1543.12 1959.92 1498.03C2037.76 1440.53 2033.68 1444.31 2098.83 1369.32C2151.09 1309.16 2151.77 1308.31 2197.7 1247.14C2254.89 1170.97 2250.61 1179.13 2278.73 1092.54C2299.6 1028.26 2298.35 1033.17 2298.5 1014.54C2298.61 999.988 2298.82 998.406 2301.9 988.623C2309.67 963.962 2297.29 945.426 2276.42 950.472" fill="#040404" fill-rule="evenodd" opacity="1" stroke="none"></path>
<path d="M1634.22 926.666C1628.65 929.258 1623.52 935.141 1622.41 940.219C1621.86 942.718 1621.12 943.234 1616.69 944.183C1577.02 952.69 1574.33 1008.17 1612.95 1021.26C1644.78 1032.04 1675.83 1006.08 1669.03 974.37C1667.92 969.173 1667.95 969.036 1670.93 966.052C1683.23 953.75 1678.22 930.182 1662.29 925.452C1654.87 923.249 1640.19 923.884 1634.22 926.666" fill="#040404" fill-rule="evenodd" opacity="1" stroke="none"></path>
</svg></svg></g></g><defs><clipPath id="SvgjsClipPath1070"><rect width="1000" height="1000" x="0" y="0" rx="350" ry="350"></rect></clipPath></defs></svg>